<svg width="310" height="280" viewBox="0 0 310 280" fill="none" xmlns="http://www.w3.org/2000/svg">
<path d="M275.792 229.738C278.005 231.186 287.415 239.874 292.682 244.823C293.342 245.443 293.904 246.199 294.699 246.636C295.512 247.082 296.669 247.27 298.005 246.433C299.056 245.775 299.361 244.941 299.316 244.167C299.233 242.774 297.949 241.832 296.923 240.878C294.89 238.986 290.958 235.041 284.378 227.847C272.776 215.161 246.292 199.268 239.237 192.435C237.379 190.636 236.278 189.285 235.687 188.283C234.509 186.288 237.388 186.214 239.459 187.27C246.376 190.798 256.948 196.108 260.745 197.707C266.294 200.043 271.507 199.83 284.727 194.843C297.948 189.857 305.278 166.025 305.732 163.158C306.187 160.29 306.692 136.567 304.632 118.761C303.526 109.208 299.912 99.4426 296.624 92.3645C294.503 87.7993 289.15 87.5881 289.542 92.6004C289.934 97.5983 281.445 111.317 277.152 117.551C271.634 125.603 260.031 141.352 257.769 139.94C254.941 138.176 257.57 136.53 269.629 117.404C281.687 98.2783 289.08 78.717 286.658 68.7884C284.237 58.8597 268.241 44.0178 265.444 42.993C262.647 41.9681 261.069 48.1863 253.02 61.621C244.971 75.0556 228.931 126.765 226.987 129.693C225.043 132.622 222.229 127.039 222.119 120.264C222.009 113.488 231.25 80.4042 235.811 53.4951C240.373 26.5859 227.499 24.7207 217.845 17.4816C210.615 12.0608 188.741 6.16203 176.744 3.42487C175.212 3.07535 173.904 3.3167 174.512 4.75595C175.442 6.9574 177.842 11.363 183.041 19.5353C192.422 34.2837 195.153 80.3458 195.345 101.533C195.352 104.914 194.611 111.762 191.596 112.114C187.827 112.553 187.57 84.3032 185.795 58.1666C184.044 32.3907 174.938 20.3268 166.007 8.49548L165.633 7.99893C158.394 -1.59546 137.245 4.73758 127.576 9.10338C126.537 9.43086 125.753 11.6395 130.924 17.8545C137.387 25.6233 150.695 77.9522 151.903 91.805C152.869 102.887 152.686 108.334 152.474 109.672C152.327 111.217 151.053 114.152 147.126 113.538C142.216 112.771 139.882 93.8932 140.336 91.0257C140.791 88.1583 138.407 61.192 135.574 48.2605C132.741 35.3289 116.499 14.5715 109.352 8.31219C102.206 2.05286 71.3153 19.5577 69.8112 20.6449C68.307 21.7322 74.5402 25.3511 79.6636 28.5026C84.7871 31.6542 86.1883 37.7503 91.1005 44.1012C96.0127 50.4522 103.028 68.739 105.143 74.0651C107.258 79.3912 107.018 84.6429 105.53 87.4958C104.041 90.3487 98.6586 85.0996 97.0288 77.6454C95.399 70.1913 89.4051 58.5289 84.7029 46.1868C80.941 36.3131 71.8323 30.609 67.7481 28.9911C66.7195 28.6345 64.2978 28.54 62.8399 31.0156C61.4957 33.2982 51.9514 36.5725 46.2623 38.2541C45.3615 38.5204 44.4058 38.7766 43.7715 39.4652C42.9273 40.3818 42.9228 41.7 46.4614 42.8546C52.5114 44.8286 57.7886 51.6774 62.777 58.4811C67.7654 65.2847 68.1799 73.8712 65.5219 77.5697C62.8639 81.2682 54.4861 74.3757 49.1327 67.0742L39.3027 53.6672C38.0031 51.8947 36.1157 50.2345 34.0837 51.0924C32.806 51.6318 31.3029 52.7725 29.7486 54.9351C25.5718 60.7471 20.5887 65.1107 16.0936 72.9299C11.5985 80.7491 10.7401 97.3646 11.0463 101.967C11.3525 106.57 18.5269 107.985 24.1518 110.774C29.7767 113.563 49.3826 113.101 58.1976 112.569C61.4518 112.372 63.828 112.533 65.5009 112.83C67.7931 113.236 70.333 114.397 71.1147 116.575C71.3706 117.288 71.452 118.148 71.2108 119.158C70.3311 122.84 19.7784 118.759 14.2913 117.902C13.6572 117.802 13.0581 117.668 12.4944 117.507C8.37497 116.33 3.87061 116.007 4.00284 120.261C4.17265 125.723 8.19169 139.575 10.6719 145.399C13.1521 151.223 24.6585 153.315 41.6667 155.239C58.6749 157.162 97.7908 145.645 102.79 143.047C107.789 140.449 111.483 142.348 112.867 143.887C114.251 145.426 113.066 147.297 109.117 151.676C105.167 156.054 61.5508 164.223 48.4507 166.584C35.3506 168.944 21.2464 169.237 18.4346 169.239C15.6229 169.24 16.536 171.881 18.8477 175.033C21.1594 178.186 33.3423 196.546 37.098 199.925C40.8537 203.303 43.0892 206.004 56.7374 205.786C70.3857 205.568 96.9016 193.257 117.567 182.382C134.099 173.681 141.768 170.982 143.536 170.719C144.721 170.709 147.19 171.378 147.58 174.143C148.068 177.599 139.832 181.013 124.623 192.006C109.415 203 102.621 203.848 88.5505 210.464C74.4797 217.081 60.572 215.201 57.0156 215.233C56.8671 215.234 56.7166 215.228 56.5647 215.215C52.9894 214.912 49.9357 216.059 51.3332 219.34C53.8134 225.164 57.9501 230.806 62.7861 236.704C67.6221 242.603 81.8814 248.798 87.4608 251.874C93.0401 254.95 106.686 249.149 117.687 243.228C128.688 237.307 146.308 216.7 153.038 208.789C157.352 203.718 162.819 199.638 166.323 197.393C167.752 196.478 169.99 195.606 170.603 197.181C170.778 197.629 170.839 198.24 170.709 199.062C170.164 202.503 146.617 226.886 136.059 236.549C125.5 246.212 106.035 254.189 102.311 254.342C98.5875 254.495 95.2743 254.858 93.8464 256.398C92.4184 257.938 109.064 264.948 116.376 268.294C123.689 271.641 133.903 274.413 142.217 274.243C150.531 274.073 154.131 270.963 161.074 265.436C168.018 259.91 188.761 223.335 190.478 221.84C192.195 220.345 194.065 222.548 194.781 224.57C195.353 226.187 193.988 229.882 193.234 231.527L191.143 236.349C190.827 237.078 190.57 237.831 190.375 238.6L189.895 240.491C189.622 241.565 189.227 242.604 188.738 243.6C186.944 247.253 184.402 252.902 184.551 254.56C184.689 256.1 182.623 259.124 180.967 261.206C180.27 262.082 179.436 262.839 178.497 263.454C176.283 264.902 173.039 266.729 171.228 266.729C168.69 266.731 171.58 269.929 173.895 270.962L176.443 272.099C178.663 273.034 183.695 275.084 186.066 275.807C189.03 276.711 193.513 275.502 197.084 274.444C200.656 273.386 208.755 270.832 217.053 268.896C225.35 266.96 230.989 265.932 240.424 259.619C249.859 253.307 254.047 238.093 254.576 232.887C255.106 227.68 252.913 219.109 252.045 216.182C251.909 215.723 251.717 215.21 251.49 214.67C250.886 213.24 252.679 211.625 253.959 212.514L259.432 217.19L265.94 221.88C268.241 223.856 273.433 228.194 275.792 229.738Z" fill="#2E3B2E"/>
</svg>
