<svg width="360" height="640" viewBox="0 0 360 640" fill="none" xmlns="http://www.w3.org/2000/svg">
<g clip-path="url(#clip0)">
<mask id="mask0" mask-type="alpha" maskUnits="userSpaceOnUse" x="0" y="0" width="360" height="640">
<rect width="360" height="640" fill="#FFF1F1"/>
</mask>
<g mask="url(#mask0)">
<path d="M374.734 659.24C346.997 635.687 296.841 604.859 264.689 599.063C228.088 592.464 201.76 604.872 171.297 605.758C133.784 606.849 117.062 602.444 73.1228 582.079C26.4815 560.462 -27.2245 526.43 -75.4276 466.643L-77.6782 463.852C-123.636 406.855 -123.989 406.417 -148.224 354.735C-164.655 319.695 -162.809 316.619 -175.295 250.517L-131.794 43.962C-131.213 24.0488 -124 6.95656 -124 6.95656L-131.794 43.962C-132.773 77.5175 -114.922 119.083 -12 100.373C152 70.5591 217.717 161.085 276.306 251.734C374.734 404.023 395.86 645.668 395.86 645.668L374.734 659.24Z" fill="white" fill-opacity="0.75"/>
</g>
</g>
<defs>
<clipPath id="clip0">
<rect width="360" height="640" fill="white"/>
</clipPath>
</defs>
</svg>
